# Blender 4.3.0
# www.blender.org
mtllib Boat.mtl
o Boat
v -0.520519 0.000000 1.000000
v 0.520519 0.000000 1.000000
v 0.000000 0.000000 -0.390683
v -0.520519 0.568352 1.000000
v 0.520519 0.568352 1.000000
v 0.000000 0.568352 -1.000000
v -0.520519 0.000000 0.139818
v 0.520519 0.000000 0.139818
v -0.520519 0.568352 -0.469499
v 0.520519 0.568352 -0.469499
v -0.339654 0.568352 -0.194202
v -0.339654 0.568352 0.226632
v 0.339654 0.568352 0.226632
v 0.339654 0.568352 -0.194202
v -0.339654 0.893050 -0.194202
v -0.339654 0.893050 0.226632
v 0.339654 0.893050 0.226632
v 0.339654 0.893050 -0.194202
v -0.020268 0.893050 -0.063740
v -0.020268 0.893050 0.096171
v 0.237860 0.893050 0.096171
v 0.237860 0.893050 -0.063740
v -0.020268 0.993321 -0.063740
v -0.020268 0.993321 0.096171
v 0.237860 0.993321 0.096171
v 0.237860 0.993321 -0.063740
vn -0.0000 -1.0000 -0.0000
vn -0.0000 1.0000 -0.0000
vn 0.5708 -0.6004 -0.5601
vn -1.0000 -0.0000 -0.0000
vn -0.0000 -0.0000 1.0000
vn -0.5708 -0.6004 -0.5601
vn 1.0000 -0.0000 -0.0000
vn -0.0000 -0.0000 -1.0000
vt 0.000000 0.734749
vt 1.000000 1.000000
vt 1.000000 0.734749
vt 0.000000 0.734749
vt 1.000000 0.734749
vt 0.000000 1.000000
vt 0.000000 0.000000
vt 1.000000 0.000000
s 0
f 7/1/1 3/2/1 8/3/1
f 9/4/2 10/5/2 6/6/2
f 8/3/3 3/2/3 6/2/3 10/5/3
f 7/1/4 1/7/4 4/7/4 9/4/4
f 1/7/5 2/8/5 5/8/5 4/7/5
f 3/6/6 7/1/6 9/4/6 6/6/6
f 2/8/7 8/3/7 10/5/7 5/8/7
f 4/7/2 5/8/2 13/8/2 12/7/2
f 1/7/1 7/1/1 8/3/1 2/8/1
f 11/4/4 12/7/4 16/7/4 15/4/4
f 10/5/2 9/4/2 11/4/2 14/5/2
f 9/4/2 4/7/2 12/7/2 11/4/2
f 5/8/2 10/5/2 14/5/2 13/8/2
f 18/5/2 15/4/2 19/4/2 22/5/2
f 14/5/8 11/4/8 15/4/8 18/5/8
f 12/7/5 13/8/5 17/8/5 16/7/5
f 13/8/7 14/5/7 18/5/7 17/8/7
f 21/8/7 22/5/7 26/5/7 25/8/7
f 16/7/2 17/8/2 21/8/2 20/7/2
f 17/8/2 18/5/2 22/5/2 21/8/2
f 15/4/2 16/7/2 20/7/2 19/4/2
f 24/7/2 25/8/2 26/5/2 23/4/2
f 19/4/4 20/7/4 24/7/4 23/4/4
f 22/5/8 19/4/8 23/4/8 26/5/8
f 20/7/5 21/8/5 25/8/5 24/7/5
