# Blender 4.3.0
# www.blender.org
mtllib Boat.mtl
o Boat
v -0.478883 0.000000 0.978264
v 0.478883 0.000000 0.978264
v 0.000000 -0.000000 -0.897959
v -0.520519 0.568352 1.000000
v 0.520519 0.568352 1.000000
v 0.000000 0.568352 -1.000000
v -0.478883 0.000000 -0.367458
v 0.478883 0.000000 -0.367458
v -0.520519 0.568352 -0.469499
v 0.520519 0.568352 -0.469499
v -0.339654 0.568352 -0.194202
v -0.339654 0.568352 0.226632
v 0.339654 0.568352 0.226632
v 0.339654 0.568352 -0.194202
v -0.339654 0.893050 -0.194202
v -0.339654 0.893050 0.226632
v 0.339654 0.893050 0.226632
v 0.339654 0.893050 -0.194202
v -0.020268 0.893050 -0.063740
v -0.020268 0.893050 0.096171
v 0.237860 0.893050 0.096171
v 0.237860 0.893050 -0.063740
v -0.020268 0.993321 -0.063740
v -0.020268 0.993321 0.096171
v 0.237860 0.993321 0.096171
v 0.237860 0.993321 -0.063740
vn -0.0000 -1.0000 -0.0000
vn -0.0000 1.0000 -0.0000
vn 0.7199 -0.1481 -0.6781
vn -0.9973 -0.0731 -0.0000
vn -0.0000 -0.0382 0.9993
vn -0.7199 -0.1481 -0.6781
vn 0.9973 -0.0731 -0.0000
vn -1.0000 -0.0000 -0.0000
vn -0.0000 -0.0000 -1.0000
vn -0.0000 -0.0000 1.0000
vn 1.0000 -0.0000 -0.0000
vt 0.000000 0.734749
vt 1.000000 1.000000
vt 1.000000 0.734749
vt 0.000000 1.000000
vt 0.000000 0.000000
vt 1.000000 0.000000
s 1
f 7/1/1 3/2/1 8/3/1
f 9/1/2 10/3/2 6/4/2
f 8/3/3 3/2/3 6/2/3 10/3/3
f 7/1/4 1/5/4 4/5/4 9/1/4
f 1/5/5 2/6/5 5/6/5 4/5/5
f 3/4/6 7/1/6 9/1/6 6/4/6
f 2/6/7 8/3/7 10/3/7 5/6/7
f 4/5/2 5/6/2 13/6/2 12/5/2
f 1/5/1 7/1/1 8/3/1 2/6/1
f 11/1/8 12/5/8 16/5/8 15/1/8
f 10/3/2 9/1/2 11/1/2 14/3/2
f 9/1/2 4/5/2 12/5/2 11/1/2
f 5/6/2 10/3/2 14/3/2 13/6/2
f 18/3/2 15/1/2 19/1/2 22/3/2
f 14/3/9 11/1/9 15/1/9 18/3/9
f 12/5/10 13/6/10 17/6/10 16/5/10
f 13/6/11 14/3/11 18/3/11 17/6/11
f 21/6/11 22/3/11 26/3/11 25/6/11
f 16/5/2 17/6/2 21/6/2 20/5/2
f 17/6/2 18/3/2 22/3/2 21/6/2
f 15/1/2 16/5/2 20/5/2 19/1/2
f 24/5/2 25/6/2 26/3/2 23/1/2
f 19/1/8 20/5/8 24/5/8 23/1/8
f 22/3/9 19/1/9 23/1/9 26/3/9
f 20/5/10 21/6/10 25/6/10 24/5/10
